<?xml version="1.0" encoding="UTF-8"?><svg id="Layer_2" xmlns="http://www.w3.org/2000/svg" viewBox="0 0 959.68 786.59"><defs><style>.cls-1{fill:#01161e;}</style></defs><g id="Layer_1-2"><path class="cls-1" d="M318.83,786.59h-40.22c-4.39,0-8.58-1.89-11.48-5.19l-69.77-79.32c-2.16-2.43-25.56-30.41-7.72-81.83,3.43-9.76,4.23-20.13,2.68-22.63-.53-.1-2.46-.27-6.7,1.24-1.06,.38-2.15,.86-2.99,1.24-4.41,2-21.24,9.11-52.96,16.66-5.45,1.3-11.4,2.38-18.71,3.4-7.56,1.05-33.45,8.73-49.38,63.23-1.72,5.89-2.59,11.96-2.59,18.05v15.95c0,10.6-4.94,20.56-13.21,26.65-10.84,7.98-23.37,6.53-33.5-3.88-7.92-8.14-12.29-19.11-12.29-30.88,0-2.98,.27-5.98,.82-8.92l7.6-41.14c2.45-13.26,6.34-26.28,11.57-38.71l19.34-45.94c3.42-8.13,8.84-15.37,15.66-20.93,12.45-10.16,35.36-30.72,48.9-54.32,4.72-8.23,7.92-17.47,9.49-27.47l17.39-110.13c.62-3.95-.37-8.06-2.72-11.27-14.64-19.93-50.71-72.84-69.44-133.44-10.74-34.75-14.17-66.88-10.18-95.5,4.9-35.17,20.98-65.18,47.79-89.22,.75-.67,18.96-16.93,44.65-26.1C176.25-6.44,208.39,.35,233.81,25.83c11.96,11.98,16.61,29.28,12.13,45.15-3.19,11.33-9.38,15.46-14.01,16.94-7.28,2.32-15.54-.18-24.55-7.44-4.42-3.56-9.04-6.32-13.74-8.18-9.65-3.84-23.71-7.04-35.94-.48-12.46,6.68-21.36,22.38-26.46,46.65-6.27,29.86-4.5,61.06,5.11,90.21,8.76,26.57,27,63,64.11,85.71,1.61,.99,3.52,1.34,5.4,1.01,27.41-4.96,175.01-27.09,388.82,24.82,.24,.06,.49,.13,.72,.21,.73,.24,75,23.81,114.4-21.72,1.21-1.44,31.45-37.07,69.51-42.95l47.28-44.47c2.58-2.43,6.3-3.2,9.64-2,3.33,1.2,5.71,4.17,6.15,7.69l5.1,40.8c13.22,4.06,41.51,15.23,48.16,37.83,.39,1.31,.62,2.72,.71,4.3,.03,.57,.26,2.62,1.83,4.57l18.61,23.15c.05,.06,.09,.12,.14,.18l4.6,6.01c5.69,7.44,6.56,17.6,2.22,25.9l-14.2,27.16c-4.08,7.81-12.09,12.66-20.9,12.66h-5.65c-18.83,0-37.14,6.73-51.55,18.96-17.55,14.89-27.63,28.44-27.71,37.19l2.77,122.92c.08,3.72,.93,7.29,2.52,10.61,8.73,18.27,41.65,81.55,98.73,128.88,2.84,2.35,6.37,3.65,9.96,3.65h12.33c12.52,0,23.78,7.71,28.02,19.19,3.04,8.23,1.68,16.34-3.82,22.83-4.92,5.8-12.28,9.13-20.21,9.13h-34.81c-8.31,0-16.36-2.98-22.68-8.39-5.22-4.47-10.22-8.08-14.47-10.45-10.72-5.98-21.16-13.16-31.92-21.95l-102.62-83.9c-11.23-9.18-20.91-20.15-28.75-32.6-3.76-5.97-11.55-14.68-27.29-22.34-3.08-1.5-6.67-1.72-10.11-.63-9.08,2.89-23.42,4.5-42.63,4.8-4.02,.06-7.89,1.53-10.9,4.13-5.61,4.86-14.12,14.8-22.81,34.54-3.18,7.24-6.97,14.7-11.24,22.18l-26.41,46.21c-2.83,4.96-4.33,10.6-4.33,16.32,0,2.16,1.21,4.11,3.15,5.09,14.5,7.3,21.3,19.43,18.65,33.26-1.85,9.65-10.35,16.66-20.23,16.66h-34.36c-12.33,0-22.53-9.47-23.23-21.56-.03-.51-.05-1.03-.05-1.57v-25.62c0-18.75,2.75-37.3,8.17-55.12,5.02-16.49,11.22-45.01,12.29-87.19,0-.21-.13-.41-.34-.49-12.01-4.8-42.73-15.46-68.64-10.82-13.86,2.48-28.13,4.03-42.44,4.62l-59.78,2.44c-3.36,11.3-12.13,33.33-33.1,53.4-6.36,6.09-11.7,11.95-16.32,17.91l-12.87,16.6c-4.05,5.23-6.28,11.75-6.28,18.37v5.94c0,2.93,1.05,5.77,2.96,8l24.11,28.13c2.08,2.42,5.1,3.88,8.29,4.01l7.28,.28c11.45,.44,22.02,6.18,28.25,15.37,5.68,8.37,6.42,17.38,2.06,25.37-4.27,7.84-12.64,12.72-21.84,12.72Zm-38.63-18.82h38.63c2.27,0,4.36-1.14,5.32-2.9,.44-.81,1.26-2.32-1.1-5.8-2.89-4.26-7.9-6.92-13.41-7.14l-7.28-.28c-8.41-.32-16.38-4.17-21.85-10.56l-24.11-28.13c-4.83-5.63-7.49-12.82-7.49-20.24v-5.94c0-10.77,3.63-21.38,10.23-29.89l12.87-16.6c5.19-6.7,11.14-13.23,18.18-19.97,24.45-23.4,29.37-50.24,29.41-50.51,.76-4.36,4.47-7.64,8.89-7.82l66.82-2.73c13.45-.55,26.87-2.01,39.89-4.34,29.59-5.3,62.16,5.16,78.94,11.87,7.48,2.99,12.37,10.4,12.17,18.44-1.12,44.29-7.74,74.58-13.1,92.19-4.88,16.04-7.35,32.74-7.35,49.64v25.62c0,.17,0,.33,.01,.49,.12,2.11,2.11,3.83,4.44,3.83h34.36c.85,0,1.6-.59,1.75-1.38,.41-2.14,1.5-7.82-8.63-12.92-8.33-4.2-13.5-12.58-13.5-21.89s2.36-17.85,6.81-25.65l26.41-46.21c3.95-6.92,7.44-13.79,10.36-20.43,8.11-18.42,17.43-32.28,27.71-41.19,6.34-5.49,14.48-8.59,22.93-8.72,22.78-.35,33.1-2.61,37.22-3.92,8.06-2.56,16.6-1.98,24.04,1.64,15.84,7.7,27.6,17.54,34.97,29.23,6.76,10.73,15.09,20.17,24.75,28.07l102.62,83.9c9.89,8.09,19.43,14.66,29.17,20.09,5.4,3.01,11.31,7.25,17.55,12.6,2.91,2.49,6.62,3.87,10.45,3.87h34.81c2.35,0,4.54-.93,5.85-2.48,.81-.96,1.36-1.87,.52-4.15-1.52-4.12-5.69-6.9-10.37-6.9h-12.33c-7.97,0-15.77-2.83-21.97-7.98-58.4-48.42-91.97-110.71-103.7-135.25-2.75-5.74-4.21-11.9-4.36-18.3l-2.78-123.04c0-.07,0-.14,0-.21,0-15.12,11.23-32.01,34.35-51.63,17.8-15.11,40.43-23.44,63.72-23.44h5.65c1.78,0,3.4-.98,4.23-2.56l14.2-27.17c.96-1.84,.77-4.1-.49-5.75l-4.52-5.91-18.55-23.07c-4.75-5.91-5.76-12.12-5.94-15.29,0-.07,0-.13-.01-.2-4.54-14.89-31.6-24.31-40.76-26.44-3.84-.89-6.72-4.09-7.21-8l-3.58-28.67-36,33.86c-1.49,1.4-3.4,2.28-5.43,2.5-31.97,3.46-60.16,36.54-60.44,36.88-19.98,23.1-49.68,35.05-86.06,34.72-25.09-.24-45.04-6.22-48.15-7.21-209.94-50.91-353.96-29.35-380.7-24.51-6.42,1.16-13.01-.07-18.57-3.47-41.97-25.69-62.41-66.31-72.16-95.87-10.65-32.3-12.61-66.86-5.66-99.97,6.29-29.96,18.39-49.93,35.97-59.37,18.61-9.98,38.44-5.74,51.8-.42,6.45,2.57,12.7,6.27,18.59,11.02,3.9,3.14,6.11,3.89,6.92,4.06,.39-.53,1.08-1.76,1.72-4.01,2.63-9.33-.18-19.58-7.34-26.75-20.2-20.24-44.86-25.36-73.29-15.21-22.22,7.93-38.24,22.23-38.4,22.37-43.27,38.8-54.1,94.37-32.21,165.17,17.89,57.87,52.56,108.7,66.63,127.86,5.31,7.23,7.55,16.46,6.15,25.34l-17.39,110.13c-1.94,12.27-5.89,23.67-11.76,33.9-15.05,26.23-39.87,48.57-53.33,59.54-4.45,3.63-7.98,8.35-10.21,13.65l-19.34,45.94c-4.71,11.18-8.21,22.9-10.41,34.82l-7.6,41.14c-.33,1.81-.5,3.67-.5,5.51,0,6.74,2.53,13.21,6.96,17.75,4.74,4.88,6.84,3.34,8.86,1.85,3.47-2.56,5.55-6.85,5.55-11.49v-15.95c0-7.88,1.13-15.73,3.35-23.33,18.58-63.56,51.54-74.74,64.84-76.59,6.71-.93,12.09-1.91,16.95-3.07,30.08-7.16,45.53-13.66,49.54-15.49,1.17-.53,2.74-1.22,4.45-1.83,14.12-5.04,22.06-1.13,26.23,3.03,11.55,11.52,4.35,35.29,1.87,42.3-14.39,41.47,3.25,62.22,4.01,63.08l68.8,78.22Z"/></g></svg>